Coordinates
version=1
nRows=10
nColumns=22
inDegrees=yes

Units are S.I. units (second, meters, Newtons, ...)
If the header above contains a line with 'inDegrees', this indicates whether rotational values are in degrees (yes) or radians (no).

endheader
time	pelvis_tilt	pelvis_list	pelvis_rotation	pelvis_tx	pelvis_ty	pelvis_tz	hip_flexion_r	hip_adduction_r	hip_rotation_r	knee_angle_r	ankle_angle_r	subtalar_angle_r	hip_flexion_l	hip_adduction_l	hip_rotation_l	knee_angle_l	ankle_angle_l	subtalar_angle_l	lumbar_extension	lumbar_bending	lumbar_rotation
      1.36000000	    -11.11053453	      2.25828897	    -32.32112802	     -0.96845005	      0.88081317	     -0.34392760	      8.20430157	      1.81829855	      2.51051804	     -3.63100625	     11.13259004	     -0.09866717	      5.68781914	     -5.72899045	     -4.32193120	     -5.51838262	     15.15714321	      3.23142994	      5.66382084	      1.93397444	     12.68062986
      1.37000000	    -11.13322861	      2.29158048	    -32.38371416	     -0.96817415	      0.88074983	     -0.34392802	      8.23638893	      1.79344768	      2.56932867	     -3.63928765	     11.12951315	     -0.07968348	      5.70269825	     -5.70184606	     -4.35766201	     -5.52868914	     15.22490758	      3.21174133	      5.67266739	      1.89073622	     12.74763696
      1.38000000	    -11.15727641	      2.29141232	    -32.40273634	     -0.96787260	      0.88071659	     -0.34398525	      8.24097557	      1.79480795	      2.56861496	     -3.63466580	     11.13155834	     -0.07844166	      5.70698731	     -5.70199831	     -4.35968481	     -5.52932413	     15.22405914	      3.21023783	      5.65296377	      1.87630119	     12.74430736
      1.39000000	    -11.18546196	      2.32671093	    -32.46021141	     -0.96761628	      0.88064801	     -0.34402082	      8.28403913	      1.76983577	      2.64803093	     -3.64989438	     11.14627859	     -0.04598946	      5.74883023	     -5.67561870	     -4.43965753	     -5.57141877	     15.25345246	      3.16914605	      5.65515644	      1.83573024	     12.79502119
      1.40000000	    -11.21168751	      2.32642051	    -32.47321098	     -0.96727827	      0.88060674	     -0.34410348	      8.28837300	      1.76904026	      2.64468520	     -3.64503247	     11.14746835	     -0.04492636	      5.75246843	     -5.67392858	     -4.43960902	     -5.56839197	     15.25539362	      3.16782889	      5.63480606	      1.82384207	     12.79385544
      1.41000000	    -11.23876332	      2.32748092	    -32.48485074	     -0.96692806	      0.88055946	     -0.34420166	      8.29374868	      1.76585198	      2.64191348	     -3.63918616	     11.14878551	     -0.04350829	      5.75725854	     -5.67008618	     -4.44010682	     -5.56544696	     15.25998789	      3.16601724	      5.61270144	      1.81225639	     12.79422014
      1.42000000	    -11.26725673	      2.36085289	    -32.50192503	     -0.96654928	      0.88046985	     -0.34431257	      8.31387150	      1.73076092	      2.64542018	     -3.62435697	     11.15630106	     -0.02214548	      5.78473525	     -5.63447678	     -4.45060133	     -5.57754937	     15.32673522	      3.13933905	      5.61390799	      1.77076109	     12.82584396
      1.43000000	    -11.29683019	      2.36083720	    -32.50937216	     -0.96616929	      0.88041267	     -0.34445155	      8.32037771	      1.72544815	      2.64493717	     -3.61904393	     11.15838666	     -0.02035326	      5.79149694	     -5.62887528	     -4.45286191	     -5.57530702	     15.32835968	      3.13712186	      5.58682801	      1.76399436	     12.82493052
      1.44000000	    -11.34520550	      2.40933146	    -32.53030506	     -0.96580881	      0.88028281	     -0.34462398	      8.38413219	      1.68376562	      2.68294774	     -3.63271633	     11.18443445	      0.05753985	      5.87107172	     -5.58803551	     -4.50179615	     -5.63367385	     15.37862560	      3.05065204	      5.60424763	      1.72671741	     12.84084789
      1.45000000	    -11.38072146	      2.41752540	    -32.53905295	     -0.96536336	      0.88019816	     -0.34478134	      8.38929222	      1.66976575	      2.66843873	     -3.61041261	     11.19225496	      0.06764224	      5.88217453	     -5.57385193	     -4.49710277	     -5.63195201	     15.40091171	      3.04190413	      5.58897373	      1.71858103	     12.86617276
